<?xml version="1.0" encoding="UTF-8"?>
<svg width="100" height="100" viewBox="0 0 100 100" xmlns="http://www.w3.org/2000/svg">
    <path d="M50 20C35 20 25 35 25 50C25 65 35 80 50 80C65 80 75 65 75 50C75 35 65 20 50 20Z" fill="#F4D03F"/>
    <path d="M45 40C45 40 55 45 55 50C55 55 45 60 45 60" stroke="#8B4513" stroke-width="3" fill="none"/>
    <path d="M35 45C35 45 45 50 45 55C45 60 35 65 35 65" stroke="#8B4513" stroke-width="3" fill="none"/>
    <path d="M55 45C55 45 65 50 65 55C65 60 55 65 55 65" stroke="#8B4513" stroke-width="3" fill="none"/>
</svg> 